<?xml version="1.0" standalone="no"?><!DOCTYPE svg PUBLIC "-//W3C//DTD SVG 1.1//EN" "http://www.w3.org/Graphics/SVG/1.1/DTD/svg11.dtd"><svg t="1688454459482" class="icon" viewBox="0 0 1024 1024" version="1.1" xmlns="http://www.w3.org/2000/svg" p-id="2315" xmlns:xlink="http://www.w3.org/1999/xlink" width="200" height="200"><path d="M797.12 901.12H249.6a110.08 110.08 0 0 1-110.08-110.08V243.52A110.4 110.4 0 0 1 249.6 133.12h273.92a32 32 0 0 1 0 64H249.6a46.08 46.08 0 0 0-46.08 46.4v547.52a46.08 46.08 0 0 0 46.08 46.08h547.52a46.4 46.4 0 0 0 46.4-46.08v-273.92a32 32 0 1 1 64 0v273.92a110.4 110.4 0 0 1-110.4 110.08zM875.52 396.8a32 32 0 0 1-32-32V197.12h-153.92a32 32 0 0 1 0-64h166.4a51.84 51.84 0 0 1 51.52 51.52v180.16a32 32 0 0 1-32 32z m-19.52-199.68z" p-id="2316"></path><path d="M526.08 546.24a32 32 0 0 1-22.4-9.28 32 32 0 0 1 0-45.12L841.6 153.6a32 32 0 0 1 45.44 45.44L548.8 536.96a32 32 0 0 1-22.72 9.28z" p-id="2317"></path></svg>