<?xml version="1.0" standalone="no"?><!DOCTYPE svg PUBLIC "-//W3C//DTD SVG 1.1//EN" "http://www.w3.org/Graphics/SVG/1.1/DTD/svg11.dtd"><svg t="1688454462412" class="icon" viewBox="0 0 1024 1024" version="1.1" xmlns="http://www.w3.org/2000/svg" p-id="2476" xmlns:xlink="http://www.w3.org/1999/xlink" width="200" height="200"><path d="M797.12 901.12H249.6a110.08 110.08 0 0 1-110.08-110.08V243.52A110.4 110.4 0 0 1 249.6 133.12h273.92a32 32 0 0 1 0 64H249.6a46.08 46.08 0 0 0-46.08 46.4v547.52a46.08 46.08 0 0 0 46.08 46.08h547.52a46.4 46.4 0 0 0 46.4-46.08v-273.92a32 32 0 1 1 64 0v273.92a110.4 110.4 0 0 1-110.4 110.08z" p-id="2477"></path><path d="M712 546.24h-166.08a51.84 51.84 0 0 1-51.84-51.52V314.56a32 32 0 0 1 64 0v167.68h153.92a32 32 0 0 1 0 64z" p-id="2478"></path><path d="M537.28 535.36a32 32 0 0 1-22.72-9.6 32 32 0 0 1 0-45.12L852.8 142.4a32 32 0 0 1 45.12 0 32 32 0 0 1 0 45.44L560 525.76a32 32 0 0 1-22.72 9.6z" p-id="2479"></path></svg>