<?xml version="1.0" standalone="no"?><!DOCTYPE svg PUBLIC "-//W3C//DTD SVG 1.1//EN" "http://www.w3.org/Graphics/SVG/1.1/DTD/svg11.dtd"><svg t="1688221830399" class="icon" viewBox="0 0 1024 1024" version="1.1" xmlns="http://www.w3.org/2000/svg" p-id="3698" xmlns:xlink="http://www.w3.org/1999/xlink" width="200" height="200"><path d="M727.6544 500.736a102.83008 102.83008 0 0 1 0 145.408L482.304 891.4944a102.83008 102.83008 0 0 1-145.408 0L91.5456 646.144a102.83008 102.83008 0 0 1 0-145.408l175.8208-175.8208a81.92 81.92 0 0 0 0-115.83488L242.8928 184.60672a60.14976 60.14976 0 0 1 85.07392-85.07392L727.6544 500.736zM409.6 327.68L163.84 573.44h491.52L409.6 327.68z m552.96 489.6768c0 57.5488-45.85472 104.2432-102.4 104.2432s-102.4-46.6944-102.4-104.2432c0-22.528 7.04512-43.99104 19.8656-61.72672l60.29312-107.60192a25.37472 25.37472 0 0 1 44.48256 0l60.3136 107.60192c12.8 17.73568 19.84512 39.2192 19.84512 61.70624z" p-id="3699"></path></svg>