<?xml version="1.0" standalone="no"?><!DOCTYPE svg PUBLIC "-//W3C//DTD SVG 1.1//EN" "http://www.w3.org/Graphics/SVG/1.1/DTD/svg11.dtd"><svg t="1687096279674" class="icon" viewBox="0 0 1024 1024" version="1.1" xmlns="http://www.w3.org/2000/svg" p-id="4208" xmlns:xlink="http://www.w3.org/1999/xlink" width="200" height="200"><path d="M937.877011 534.077403C936.126716 536.150964 934.105442 537.779891 931.880361 538.98403 929.616351 543.164358 926.877174 547.226752 923.675806 551.020839L541.16077 1004.412137C537.031967 1009.305406 532.531808 1013.292995 527.926311 1016.319563 523.434549 1021.179246 517.349735 1023.351658 510.626022 1023.043658 502.735955 1023.961169 495.560737 1021.623499 490.582358 1015.69364 490.556023 1015.662725 490.533124 1015.628758 490.507171 1015.597461 486.164256 1012.623944 481.928969 1008.801996 478.029544 1004.160241L96.370955 549.831585C92.456263 545.171892 89.238484 540.112219 86.740897 534.926598 86.516481 534.682335 86.288248 534.44456 86.071846 534.186558 79.858413 526.786161 78.367648 515.334056 81.032401 503.249921 81.467876 500.57181 82.186924 498.046744 83.202141 495.730065 85.879871 488.235397 90.080427 480.767065 95.690073 474.117776L478.20549 20.726859C485.234531 12.395592 493.339092 6.695874 501.209313 3.896776 513.379703-3.566595 532.328001 2.540736 546.721564 19.675003L928.380535 474.003659C944.965973 493.746957 949.217671 520.642953 937.877011 534.077403ZM512.895376 76.945832 146.189481 511.598363 509.71767 944.3445 876.423946 509.691969 512.895376 76.945832ZM472.247006 650.732697 472.247006 531.654622 357.367196 531.654622C340.50429 531.654622 326.834356 517.984688 326.834356 501.121782 326.834356 484.258877 340.50429 470.588943 357.367196 470.588943L472.247006 470.588943 472.247006 373.647176C472.247006 356.78427 485.91694 343.114336 502.779846 343.114336 519.642751 343.114336 533.312686 356.78427 533.312686 373.647176L533.312686 470.588943 634.452717 470.588943C651.315623 470.588943 664.985557 484.258877 664.985557 501.121782 664.985557 517.984688 651.315623 531.654622 634.452717 531.654622L533.312686 531.654622 533.312686 650.732697C533.312686 667.595603 519.642751 681.265537 502.779846 681.265537 485.91694 681.265537 472.247006 667.595603 472.247006 650.732697Z" p-id="4209"></path></svg>