<?xml version="1.0" standalone="no"?><!DOCTYPE svg PUBLIC "-//W3C//DTD SVG 1.1//EN" "http://www.w3.org/Graphics/SVG/1.1/DTD/svg11.dtd"><svg t="1687096422685" class="icon" viewBox="0 0 1024 1024" version="1.1" xmlns="http://www.w3.org/2000/svg" p-id="8097" xmlns:xlink="http://www.w3.org/1999/xlink" width="200" height="200"><path d="M889.173333 267.52L757.76 136.533333a33.706667 33.706667 0 0 0-58.026667 23.893334v262.4a34.133333 34.133333 0 0 0 58.026667 23.893333l131.413333-130.986667a34.133333 34.133333 0 0 0 0-48.213333zM889.173333 736.853333l-131.413333-130.986666a33.706667 33.706667 0 0 0-58.026667 23.893333v262.4a34.133333 34.133333 0 0 0 58.026667 23.893333l131.413333-130.986666a34.133333 34.133333 0 0 0 0-48.213334z" p-id="8098"></path><path d="M102.4 426.666667m42.666667 0l256 0q42.666667 0 42.666666 42.666666l0 0q0 42.666667-42.666666 42.666667l-256 0q-42.666667 0-42.666667-42.666667l0 0q0-42.666667 42.666667-42.666666Z" p-id="8099"></path><path d="M742.4 810.666667h-170.666667a42.666667 42.666667 0 0 1-30.293333-12.373334l-170.666667-170.666666a42.666667 42.666667 0 1 1 60.586667-60.586667l157.866667 158.293333h153.173333a42.666667 42.666667 0 0 1 0 85.333334zM401.066667 512a42.666667 42.666667 0 0 1-30.293334-12.373333 42.666667 42.666667 0 0 1 0-60.586667l170.666667-170.666667A42.666667 42.666667 0 0 1 571.733333 256h170.666667a42.666667 42.666667 0 0 1 0 85.333333h-153.173333l-157.866667 158.293334a42.666667 42.666667 0 0 1-30.293333 12.373333z" p-id="8100"></path></svg>